<svg width="512" height="512" viewBox="0 0 512 512" fill="none" xmlns="http://www.w3.org/2000/svg">
<style>
@media (prefers-color-scheme: dark) {
.a { fill: #15192D; }
.b { fill: #ECEDEE; }
}
</style>
<rect width="512" height="512" rx="80" fill="#F8FAFF" class="a"/>
<path d="M118.344 446.376C110.664 446.376 103.752 444.499 97.608 440.744C91.464 436.819 86.6 431.784 83.016 425.64C79.6027 419.325 77.896 412.413 77.896 404.904C77.896 397.224 79.6027 390.312 83.016 384.168C86.6 377.853 91.464 372.904 97.608 369.32C103.752 365.565 110.664 363.688 118.344 363.688C126.195 363.688 133.192 365.565 139.336 369.32C145.48 372.904 150.259 377.768 153.672 383.912C157.256 390.056 159.048 397.053 159.048 404.904C159.048 412.413 157.256 419.325 153.672 425.64C150.259 431.784 145.48 436.819 139.336 440.744C133.363 444.499 126.365 446.376 118.344 446.376Z" fill="#11181C" class="b"/>
<path d="M274.828 77.4799V389.544C274.828 396.371 275.425 401.32 276.62 404.392C277.815 407.293 280.033 409.427 283.276 410.792L290.7 413.352C295.82 416.595 298.38 421.032 298.38 426.664C298.38 436.221 293.601 441 284.044 441H201.612C196.663 441 192.823 439.805 190.092 437.416C187.361 434.856 185.996 431.272 185.996 426.664C185.996 423.08 186.764 420.179 188.3 417.96C190.007 415.571 192.396 413.437 195.468 411.56L202.38 409.256C205.623 408.061 207.841 406.099 209.036 403.368C210.401 400.637 211.084 396.029 211.084 389.544V128.936C211.084 123.304 210.401 119.379 209.036 117.16C207.841 114.771 205.623 113.064 202.38 112.04L192.396 111.016C188.812 109.309 186.252 107.432 184.716 105.384C183.351 103.336 182.668 100.776 182.668 97.7039C182.668 94.2906 183.692 91.304 185.74 88.744C187.959 86.184 191.799 83.7946 197.26 81.576L234.38 67.4959C241.036 64.9359 246.241 63.2293 249.996 62.3759C253.751 61.5226 257.164 61.0959 260.236 61.0959C265.015 61.0959 268.599 62.6319 270.988 65.7039C273.548 68.6053 274.828 72.5306 274.828 77.4799ZM268.172 285.864L255.116 270.248L265.356 260.008C282.593 242.429 297.953 229.885 311.436 222.376C325.089 214.867 338.487 211.112 351.628 211.112C369.719 211.112 383.201 216.659 392.076 227.752C401.121 238.845 406.924 254.461 409.484 274.6L423.82 389.544C424.673 396.029 425.527 400.637 426.38 403.368C427.404 405.928 429.452 407.891 432.524 409.256L439.692 411.56C442.593 413.437 444.897 415.571 446.604 417.96C448.311 420.179 449.164 423.08 449.164 426.664C449.164 431.272 447.799 434.856 445.068 437.416C442.337 439.805 438.497 441 433.548 441H350.604C341.217 441 336.524 436.221 336.524 426.664C336.524 420.861 339.169 416.424 344.46 413.352L351.628 410.792C354.871 409.427 357.26 407.379 358.796 404.648C360.332 401.917 360.759 397.395 360.076 391.08L347.276 298.664C345.399 285.352 342.071 275.368 337.292 268.712C332.513 261.885 325.26 258.472 315.532 258.472C309.9 258.472 303.927 259.923 297.612 262.824C291.297 265.725 284.215 270.845 276.364 278.184L268.172 285.864Z" fill="#11181C" class="b"/>
</svg>
